<svg xmlns="http://www.w3.org/2000/svg" version="1.1" xmlns:xlink="http://www.w3.org/1999/xlink" xmlns:svgjs="http://svgjs.dev/svgjs" width="1000" height="121" viewBox="0 0 1000 121"><g transform="matrix(1,0,0,1,-0.6060606060606801,0.07567412993036271)"><svg viewBox="0 0 396 48" data-background-color="#d2d6dc" preserveAspectRatio="xMidYMid meet" height="121" width="1000" xmlns="http://www.w3.org/2000/svg" xmlns:xlink="http://www.w3.org/1999/xlink"><defs></defs><g id="tight-bounds" transform="matrix(1,0,0,1,0.24000000000003752,-0.03001948955915168)"><svg viewBox="0 0 395.5199999999999 48.060038979118325" height="48.060038979118325" width="395.5199999999999"><g><svg viewBox="0 0 395.5199999999999 48.060038979118325" height="48.060038979118325" width="395.5199999999999"><g><svg viewBox="0 0 395.5199999999999 48.060038979118325" height="48.060038979118325" width="395.5199999999999"><g><svg viewBox="0 0 395.5199999999999 48.060038979118325" height="48.060038979118325" width="395.5199999999999"><g><svg viewBox="0 0 395.5199999999999 48.060038979118325" height="48.060038979118325" width="395.5199999999999"><g transform="matrix(1,0,0,1,0,0)"><svg width="395.5199999999999" viewBox="3.8299999999999996 -36.230000000000004 336.7200000000001 37.910000000000004" height="48.060038979118325" data-palette-color="#6a6a7e"><svg></svg><g class="undefined-text-0" data-fill-palette-color="primary" id="text-0"><path d="M4.27-0.37l-0.41-8.71c0-0.02-0.003-0.037-0.01-0.05-0.013-0.02-0.02-0.037-0.02-0.05v0c0-0.273 0.147-0.41 0.44-0.41v0c0.147 0 0.31 0.07 0.49 0.21v0c0.88 0.833 1.857 1.493 2.93 1.98 1.073 0.487 2.247 0.73 3.52 0.73v0c0.34 0 0.73-0.033 1.17-0.1 0.44-0.073 0.853-0.197 1.24-0.37 0.393-0.173 0.723-0.397 0.99-0.67 0.267-0.28 0.4-0.63 0.4-1.05v0c0-0.473-0.113-0.897-0.34-1.27-0.227-0.373-0.527-0.69-0.9-0.95v0c-0.147-0.1-0.367-0.263-0.66-0.49-0.293-0.227-0.627-0.487-1-0.78-0.373-0.293-0.763-0.607-1.17-0.94-0.407-0.333-0.793-0.653-1.16-0.96-0.367-0.3-0.697-0.57-0.99-0.81-0.293-0.247-0.513-0.437-0.66-0.57v0c-0.96-0.713-1.72-1.437-2.28-2.17-0.567-0.733-0.993-1.497-1.28-2.29-0.293-0.8-0.483-1.627-0.57-2.48-0.08-0.853-0.12-1.76-0.12-2.72v0c0-1.433 0.343-2.793 1.03-4.08 0.68-1.287 1.643-2.407 2.89-3.36 1.247-0.953 2.74-1.71 4.48-2.27 1.74-0.56 3.677-0.84 5.81-0.84v0c0.26 0 0.65 0.03 1.17 0.09 0.52 0.053 1.093 0.147 1.72 0.28 0.627 0.127 1.267 0.303 1.92 0.53 0.653 0.233 1.247 0.527 1.78 0.88v0c0.18 0.133 0.323 0.263 0.43 0.39 0.107 0.133 0.177 0.337 0.21 0.61v0c0.08 1.32 0.143 2.62 0.19 3.9 0.053 1.273 0.12 2.627 0.2 4.06v0c0 0.28-0.057 0.463-0.17 0.55-0.113 0.093-0.26 0.14-0.44 0.14v0c-0.18 0-0.32-0.05-0.42-0.15v0c-0.473-0.473-0.96-0.937-1.46-1.39-0.507-0.46-1.037-0.863-1.59-1.21-0.553-0.353-1.143-0.633-1.77-0.84-0.627-0.213-1.307-0.32-2.04-0.32v0c-0.44 0-0.88 0.037-1.32 0.11-0.44 0.073-0.837 0.207-1.19 0.4-0.36 0.2-0.65 0.47-0.87 0.81-0.22 0.34-0.33 0.77-0.33 1.29v0c0 0.553 0.07 1.033 0.21 1.44 0.14 0.407 0.487 0.79 1.04 1.15v0l5.86 3.98c1.073 0.767 1.943 1.527 2.61 2.28 0.667 0.76 1.187 1.513 1.56 2.26 0.373 0.747 0.63 1.483 0.77 2.21 0.14 0.727 0.21 1.44 0.21 2.14v0c0 1.14-0.187 2.213-0.56 3.22-0.38 1.007-0.893 1.937-1.54 2.79-0.653 0.86-1.417 1.627-2.29 2.3-0.867 0.673-1.797 1.25-2.79 1.73-0.993 0.48-2.023 0.847-3.09 1.1-1.067 0.253-2.113 0.38-3.14 0.38v0c-0.793 0-1.577-0.013-2.35-0.04-0.773-0.02-1.527-0.083-2.26-0.19-0.733-0.107-1.44-0.27-2.12-0.49-0.687-0.22-1.34-0.527-1.96-0.92zM51.03-14.43v-18.28c0.127-0.54 0.24-0.933 0.34-1.18 0.093-0.24 0.303-0.403 0.63-0.49v0l6.33-1.48c0.193-0.067 0.403-0.1 0.63-0.1v0c0.213 0 0.367 0.073 0.46 0.22 0.1 0.147 0.15 0.423 0.15 0.83v0c-0.1 0.387-0.18 0.983-0.24 1.79-0.067 0.807-0.117 1.69-0.15 2.65-0.033 0.96-0.057 1.923-0.07 2.89-0.02 0.973-0.03 1.817-0.03 2.53v0 1.34c0 1.013-0.007 2.113-0.02 3.3-0.02 1.187-0.04 2.39-0.06 3.61-0.027 1.22-0.057 2.427-0.09 3.62-0.033 1.187-0.067 2.3-0.1 3.34v0l-0.14 4.18c-0.02 0.08-0.03 0.153-0.03 0.22 0 0.06 0 0.123 0 0.19v0 0.37c0 0.273 0.003 0.503 0.01 0.69 0.013 0.187 0.02 0.353 0.02 0.5v0c0 0.167-0.013 0.313-0.04 0.44-0.027 0.133-0.087 0.26-0.18 0.38-0.1 0.12-0.237 0.247-0.41 0.38-0.167 0.133-0.397 0.297-0.69 0.49v0c-0.167 0.113-0.437 0.28-0.81 0.5-0.373 0.22-0.787 0.467-1.24 0.74-0.46 0.28-0.933 0.567-1.42 0.86-0.487 0.293-0.933 0.557-1.34 0.79-0.407 0.24-0.737 0.43-0.99 0.57-0.253 0.147-0.38 0.22-0.38 0.22v0l-11.33-17.43-1.02 14.29c-0.02 0.127-0.05 0.263-0.09 0.41-0.04 0.147-0.15 0.26-0.33 0.34v0c-0.147 0.067-0.397 0.17-0.75 0.31-0.36 0.133-0.78 0.29-1.26 0.47-0.48 0.18-0.983 0.363-1.51 0.55-0.533 0.187-1.037 0.36-1.51 0.52-0.467 0.153-0.883 0.277-1.25 0.37-0.367 0.1-0.617 0.15-0.75 0.15v0c-0.24 0-0.443-0.067-0.61-0.2-0.16-0.127-0.24-0.36-0.24-0.7v0c0.16-2.033 0.347-4.253 0.56-6.66 0.213-2.4 0.417-4.86 0.61-7.38 0.193-2.527 0.377-5.047 0.55-7.56 0.173-2.513 0.317-4.9 0.43-7.16v0c0-0.067-0.103-0.283-0.31-0.65-0.2-0.367-0.427-0.767-0.68-1.2-0.253-0.427-0.483-0.833-0.69-1.22-0.2-0.38-0.3-0.62-0.3-0.72v0c0-0.113 0.06-0.217 0.18-0.31 0.12-0.1 0.32-0.233 0.6-0.4v0l6.52-3.68c0.047 0 0.117-0.01 0.21-0.03 0.087-0.013 0.163-0.02 0.23-0.02v0c0.18 0 0.32 0.02 0.42 0.06 0.107 0.04 0.217 0.167 0.33 0.38v0zM85.47-20.26v0c-0.06 0.227-0.18 0.547-0.36 0.96-0.18 0.413-0.39 0.88-0.63 1.4-0.233 0.527-0.483 1.087-0.75 1.68-0.267 0.593-0.533 1.19-0.8 1.79v0c-0.093 0.227-0.18 0.393-0.26 0.5-0.087 0.107-0.217 0.183-0.39 0.23-0.18 0.053-0.43 0.083-0.75 0.09-0.32 0.007-0.763 0.02-1.33 0.04v0l-3.39 0.07-0.69 7.47h12.53v0.95c-0.033 0.033-0.173 0.25-0.42 0.65-0.24 0.4-0.523 0.877-0.85 1.43-0.327 0.553-0.67 1.11-1.03 1.67-0.353 0.56-0.653 1.01-0.9 1.35v0c-0.16 0.293-0.347 0.527-0.56 0.7-0.213 0.173-0.447 0.3-0.7 0.38-0.253 0.08-0.53 0.13-0.83 0.15-0.3 0.013-0.63 0.02-0.99 0.02v0c-1.46 0-2.983-0.033-4.57-0.1-1.587-0.067-3.17-0.147-4.75-0.24-1.58-0.1-3.123-0.21-4.63-0.33-1.507-0.12-2.903-0.247-4.19-0.38v0c-0.113-0.013-0.213-0.08-0.3-0.2-0.093-0.113-0.14-0.243-0.14-0.39v0c-0.06 0-0.013-0.137 0.14-0.41 0.153-0.28 0.37-0.64 0.65-1.08 0.273-0.433 0.577-0.933 0.91-1.5 0.333-0.56 0.657-1.123 0.97-1.69v0l0.39-5.5c0.06-0.927 0.11-1.617 0.15-2.07 0.047-0.46 0.07-0.703 0.07-0.73v0c-0.98-0.02-1.71-0.07-2.19-0.15-0.48-0.08-0.72-0.26-0.72-0.54v0c0-0.127 0.117-0.37 0.35-0.73 0.24-0.36 0.53-0.77 0.87-1.23 0.34-0.467 0.703-0.953 1.09-1.46 0.38-0.5 0.717-0.963 1.01-1.39v0l0.61-8.3h-0.07c-0.36 0.02-0.687 0.033-0.98 0.04-0.293 0.007-0.56 0.01-0.8 0.01v0c-0.787 0-1.347-0.043-1.68-0.13-0.333-0.093-0.5-0.26-0.5-0.5v0c0-0.12 0.1-0.357 0.3-0.71 0.193-0.36 0.437-0.773 0.73-1.24 0.293-0.46 0.603-0.947 0.93-1.46 0.32-0.513 0.61-0.99 0.87-1.43v0l1.47-2.49h10.2l12.04-0.88c0.02 0 0.063 0.003 0.13 0.01 0.073 0.013 0.153 0.04 0.24 0.08 0.08 0.04 0.157 0.11 0.23 0.21 0.073 0.093 0.11 0.23 0.11 0.41v0l-0.37 1.27c-0.113 0.36-0.25 0.74-0.41 1.14-0.167 0.393-0.347 0.803-0.54 1.23v0l-1.07 2.83c-0.113 0.28-0.243 0.49-0.39 0.63-0.147 0.147-0.457 0.23-0.93 0.25v0c-1.24 0.033-2.62 0.087-4.14 0.16-1.52 0.073-3.267 0.143-5.24 0.21v0c-0.06 0.227-0.09 0.407-0.09 0.54 0 0.14-0.017 0.407-0.05 0.8v0l-0.13 1.12c-0.027 0.52-0.073 1.083-0.14 1.69-0.067 0.6-0.15 1.34-0.25 2.22v0c0.833-0.033 1.643-0.067 2.43-0.1 0.793-0.033 1.513-0.063 2.16-0.09 0.653-0.02 1.22-0.04 1.7-0.06 0.48-0.013 0.817-0.02 1.01-0.02v0c0.133 0 0.28 0.05 0.44 0.15 0.167 0.093 0.25 0.28 0.25 0.56v0c0 0.127-0.027 0.273-0.08 0.44zM113.72-20.26v0c-0.067 0.227-0.19 0.547-0.37 0.96-0.173 0.413-0.38 0.88-0.62 1.4-0.233 0.527-0.483 1.087-0.75 1.68-0.273 0.593-0.54 1.19-0.8 1.79v0c-0.093 0.227-0.183 0.393-0.27 0.5-0.08 0.107-0.21 0.183-0.39 0.23-0.18 0.053-0.427 0.083-0.74 0.09-0.32 0.007-0.763 0.02-1.33 0.04v0l-3.4 0.07-0.68 7.47h12.52v0.95c-0.027 0.033-0.163 0.25-0.41 0.65-0.247 0.4-0.53 0.877-0.85 1.43-0.327 0.553-0.67 1.11-1.03 1.67-0.36 0.56-0.66 1.01-0.9 1.35v0c-0.167 0.293-0.357 0.527-0.57 0.7-0.207 0.173-0.437 0.3-0.69 0.38-0.253 0.08-0.53 0.13-0.83 0.15-0.3 0.013-0.63 0.02-0.99 0.02v0c-1.467 0-2.993-0.033-4.58-0.1-1.587-0.067-3.17-0.147-4.75-0.24-1.573-0.1-3.113-0.21-4.62-0.33-1.507-0.12-2.903-0.247-4.19-0.38v0c-0.113-0.013-0.213-0.08-0.3-0.2-0.093-0.113-0.14-0.243-0.14-0.39v0c-0.067 0-0.02-0.137 0.14-0.41 0.153-0.28 0.367-0.64 0.64-1.08 0.28-0.433 0.587-0.933 0.92-1.5 0.333-0.56 0.653-1.123 0.96-1.69v0l0.39-5.5c0.067-0.927 0.12-1.617 0.16-2.07 0.04-0.46 0.06-0.703 0.06-0.73v0c-0.973-0.02-1.7-0.07-2.18-0.15-0.48-0.08-0.72-0.26-0.72-0.54v0c0-0.127 0.117-0.37 0.35-0.73 0.24-0.36 0.53-0.77 0.87-1.23 0.34-0.467 0.7-0.953 1.08-1.46 0.387-0.5 0.727-0.963 1.02-1.39v0l0.61-8.3h-0.08c-0.353 0.02-0.677 0.033-0.97 0.04-0.293 0.007-0.563 0.01-0.81 0.01v0c-0.78 0-1.337-0.043-1.67-0.13-0.333-0.093-0.5-0.26-0.5-0.5v0c0-0.12 0.097-0.357 0.29-0.71 0.2-0.36 0.443-0.773 0.73-1.24 0.293-0.46 0.603-0.947 0.93-1.46 0.327-0.513 0.62-0.99 0.88-1.43v0l1.47-2.49h10.2l12.04-0.88c0.013 0 0.057 0.003 0.13 0.01 0.073 0.013 0.15 0.04 0.23 0.08 0.087 0.04 0.167 0.11 0.24 0.21 0.073 0.093 0.11 0.23 0.11 0.41v0l-0.37 1.27c-0.113 0.36-0.253 0.74-0.42 1.14-0.16 0.393-0.337 0.803-0.53 1.23v0l-1.08 2.83c-0.113 0.28-0.243 0.49-0.39 0.63-0.147 0.147-0.457 0.23-0.93 0.25v0c-1.233 0.033-2.61 0.087-4.13 0.16-1.527 0.073-3.273 0.143-5.24 0.21v0c-0.067 0.227-0.1 0.407-0.1 0.54 0 0.14-0.017 0.407-0.05 0.8v0l-0.12 1.12c-0.033 0.52-0.083 1.083-0.15 1.69-0.06 0.6-0.14 1.34-0.24 2.22v0c0.833-0.033 1.643-0.067 2.43-0.1 0.787-0.033 1.507-0.063 2.16-0.09 0.653-0.02 1.22-0.04 1.7-0.06 0.48-0.013 0.817-0.02 1.01-0.02v0c0.133 0 0.28 0.05 0.44 0.15 0.16 0.093 0.24 0.28 0.24 0.56v0c0 0.127-0.023 0.273-0.07 0.44zM133.62-34.94v0c-0.033 0.247-0.067 0.633-0.1 1.16-0.033 0.533-0.077 1.14-0.13 1.82-0.06 0.687-0.113 1.417-0.16 2.19-0.053 0.773-0.107 1.52-0.16 2.24-0.06 0.727-0.117 1.39-0.17 1.99-0.06 0.607-0.107 1.087-0.14 1.44v0l1.25-1.27 3.47-4.29c0.42-0.54 0.843-1.067 1.27-1.58 0.42-0.513 0.797-0.977 1.13-1.39 0.333-0.413 0.607-0.76 0.82-1.04 0.213-0.273 0.333-0.427 0.36-0.46v0l10.84-0.9c0.033-0.02 0.107-0.03 0.22-0.03v0h0.2c0.373 0 0.56 0.097 0.56 0.29v0c0 0.12-0.053 0.257-0.16 0.41-0.107 0.153-0.263 0.353-0.47 0.6v0c-0.26 0.307-0.64 0.75-1.14 1.33-0.493 0.573-1.033 1.207-1.62 1.9-0.587 0.693-1.193 1.41-1.82 2.15-0.627 0.74-1.21 1.423-1.75 2.05-0.533 0.627-0.993 1.167-1.38 1.62-0.38 0.46-0.62 0.753-0.72 0.88v0l-1.53 1.47c-1.047 0.993-2.383 2.23-4.01 3.71v0c0.507 0.52 1.047 1.083 1.62 1.69 0.58 0.613 1.133 1.2 1.66 1.76 0.533 0.56 1.017 1.07 1.45 1.53 0.427 0.453 0.747 0.793 0.96 1.02v0l7.54 8.74c0.087 0.1 0.193 0.183 0.32 0.25 0.133 0.067 0.263 0.123 0.39 0.17 0.133 0.047 0.243 0.1 0.33 0.16 0.093 0.053 0.14 0.12 0.14 0.2v0c0 0.1-0.107 0.257-0.32 0.47v0c-0.133 0.127-0.377 0.317-0.73 0.57-0.36 0.253-0.78 0.527-1.26 0.82-0.48 0.293-0.997 0.593-1.55 0.9-0.553 0.313-1.087 0.597-1.6 0.85-0.513 0.247-0.987 0.453-1.42 0.62-0.427 0.16-0.757 0.24-0.99 0.24v0c-0.34 0-0.697-0.15-1.07-0.45-0.373-0.3-0.82-0.757-1.34-1.37-0.52-0.607-1.14-1.383-1.86-2.33-0.713-0.94-1.577-2.047-2.59-3.32v0c-0.587-0.733-1.157-1.453-1.71-2.16-0.553-0.707-1.073-1.373-1.56-2-0.487-0.627-0.93-1.19-1.33-1.69-0.4-0.493-0.73-0.893-0.99-1.2v0c-0.127 0.127-0.263 0.25-0.41 0.37-0.147 0.127-0.287 0.253-0.42 0.38v0l-0.85 10.48c-0.02 0.147-0.05 0.293-0.09 0.44-0.04 0.147-0.15 0.25-0.33 0.31v0l-6.91 2.49c-0.173 0.067-0.407 0.15-0.7 0.25-0.293 0.093-0.58 0.14-0.86 0.14v0c-0.24 0-0.443-0.063-0.61-0.19-0.16-0.133-0.24-0.37-0.24-0.71v0c0.08-0.96 0.18-2.203 0.3-3.73 0.127-1.533 0.257-3.28 0.39-5.24 0.14-1.96 0.287-4.1 0.44-6.42 0.153-2.32 0.32-4.757 0.5-7.31v0l0.69-10.28c0.013-0.293 0.03-0.537 0.05-0.73 0.013-0.2 0.037-0.363 0.07-0.49 0.033-0.133 0.09-0.233 0.17-0.3 0.08-0.06 0.203-0.107 0.37-0.14v0l8.44-2.03c0.213-0.067 0.433-0.1 0.66-0.1v0c0.227 0 0.383 0.07 0.47 0.21 0.08 0.14 0.12 0.42 0.12 0.84zM176.93-20.26v0c-0.067 0.227-0.19 0.547-0.37 0.96-0.18 0.413-0.387 0.88-0.62 1.4-0.233 0.527-0.487 1.087-0.76 1.68-0.267 0.593-0.53 1.19-0.79 1.79v0c-0.1 0.227-0.19 0.393-0.27 0.5-0.08 0.107-0.21 0.183-0.39 0.23-0.18 0.053-0.427 0.083-0.74 0.09-0.32 0.007-0.763 0.02-1.33 0.04v0l-3.4 0.07-0.68 7.47h12.52v0.95c-0.033 0.033-0.17 0.25-0.41 0.65-0.247 0.4-0.533 0.877-0.86 1.43-0.327 0.553-0.667 1.11-1.02 1.67-0.36 0.56-0.663 1.01-0.91 1.35v0c-0.16 0.293-0.347 0.527-0.56 0.7-0.207 0.173-0.437 0.3-0.69 0.38-0.253 0.08-0.53 0.13-0.83 0.15-0.3 0.013-0.63 0.02-0.99 0.02v0c-1.467 0-2.993-0.033-4.58-0.1-1.587-0.067-3.17-0.147-4.75-0.24-1.58-0.1-3.12-0.21-4.62-0.33-1.507-0.12-2.903-0.247-4.19-0.38v0c-0.113-0.013-0.217-0.08-0.31-0.2-0.087-0.113-0.13-0.243-0.13-0.39v0c-0.067 0-0.023-0.137 0.13-0.41 0.16-0.28 0.377-0.64 0.65-1.08 0.28-0.433 0.587-0.933 0.92-1.5 0.333-0.56 0.653-1.123 0.96-1.69v0l0.39-5.5c0.067-0.927 0.12-1.617 0.16-2.07 0.04-0.46 0.06-0.703 0.06-0.73v0c-0.973-0.02-1.7-0.07-2.18-0.15-0.48-0.08-0.72-0.26-0.72-0.54v0c0-0.127 0.117-0.37 0.35-0.73 0.233-0.36 0.523-0.77 0.87-1.23 0.34-0.467 0.7-0.953 1.08-1.46 0.387-0.5 0.727-0.963 1.02-1.39v0l0.61-8.3h-0.08c-0.353 0.02-0.677 0.033-0.97 0.04-0.293 0.007-0.563 0.01-0.81 0.01v0c-0.78 0-1.337-0.043-1.67-0.13-0.333-0.093-0.5-0.26-0.5-0.5v0c0-0.12 0.097-0.357 0.29-0.71 0.193-0.36 0.437-0.773 0.73-1.24 0.293-0.46 0.603-0.947 0.93-1.46 0.327-0.513 0.62-0.99 0.88-1.43v0l1.46-2.49h10.21l12.04-0.88c0.013 0 0.057 0.003 0.13 0.01 0.073 0.013 0.15 0.04 0.23 0.08 0.08 0.04 0.157 0.11 0.23 0.21 0.073 0.093 0.11 0.23 0.11 0.41v0l-0.36 1.27c-0.113 0.36-0.253 0.74-0.42 1.14-0.16 0.393-0.337 0.803-0.53 1.23v0l-1.08 2.83c-0.113 0.28-0.243 0.49-0.39 0.63-0.147 0.147-0.457 0.23-0.93 0.25v0c-1.233 0.033-2.613 0.087-4.14 0.16-1.52 0.073-3.263 0.143-5.23 0.21v0c-0.067 0.227-0.1 0.407-0.1 0.54 0 0.14-0.017 0.407-0.05 0.8v0l-0.12 1.12c-0.033 0.52-0.083 1.083-0.15 1.69-0.06 0.6-0.14 1.34-0.24 2.22v0c0.827-0.033 1.637-0.067 2.43-0.1 0.787-0.033 1.507-0.063 2.16-0.09 0.647-0.02 1.213-0.04 1.7-0.06 0.48-0.013 0.817-0.02 1.01-0.02v0c0.127 0 0.273 0.05 0.44 0.15 0.16 0.093 0.24 0.28 0.24 0.56v0c0 0.127-0.023 0.273-0.07 0.44zM197.97-15.48l-1.19 13.53c-0.02 0.147-0.05 0.287-0.09 0.42-0.04 0.14-0.15 0.25-0.33 0.33v0c-0.067 0.033-0.387 0.153-0.96 0.36-0.58 0.2-1.247 0.437-2 0.71-0.76 0.267-1.51 0.533-2.25 0.8-0.74 0.267-1.307 0.473-1.7 0.62v0c-0.193 0.087-0.433 0.173-0.72 0.26-0.28 0.087-0.56 0.13-0.84 0.13v0c-0.227 0-0.427-0.057-0.6-0.17-0.167-0.113-0.25-0.323-0.25-0.63v0c0-0.72 0.02-1.377 0.06-1.97 0.04-0.593 0.093-1.213 0.16-1.86 0.06-0.653 0.127-1.373 0.2-2.16 0.073-0.793 0.143-1.733 0.21-2.82v0c0.08-1.433 0.17-2.813 0.27-4.14 0.1-1.327 0.197-2.707 0.29-4.14v0l0.34-4.18c0.053-0.68 0.103-1.373 0.15-2.08 0.047-0.713 0.097-1.443 0.15-2.19v0l0.27-2.98c0-0.033-0.05-0.05-0.15-0.05v0c-0.133 0-0.353 0.03-0.66 0.09-0.307 0.06-0.673 0.13-1.1 0.21-0.42 0.08-0.887 0.163-1.4 0.25-0.513 0.093-1.04 0.18-1.58 0.26v0c-0.127 0-0.253-0.03-0.38-0.09-0.12-0.053-0.18-0.12-0.18-0.2v0c0-0.067 0.017-0.117 0.05-0.15v0l3.96-6.91c0.893-0.193 1.857-0.393 2.89-0.6 1.033-0.2 2.143-0.383 3.33-0.55 1.187-0.16 2.45-0.293 3.79-0.4 1.333-0.107 2.747-0.16 4.24-0.16v0c1.693 0.033 3.343 0.2 4.95 0.5 1.6 0.3 3.023 0.807 4.27 1.52 1.247 0.707 2.247 1.667 3 2.88 0.76 1.213 1.14 2.747 1.14 4.6v0c0 1.027-0.177 1.97-0.53 2.83-0.347 0.867-0.793 1.643-1.34 2.33-0.547 0.693-1.143 1.303-1.79 1.83-0.653 0.533-1.277 0.987-1.87 1.36-0.593 0.373-1.12 0.67-1.58 0.89-0.453 0.22-0.76 0.363-0.92 0.43v0c0 0.033 0.01 0.073 0.03 0.12 0.027 0.047 0.08 0.14 0.16 0.28 0.08 0.14 0.197 0.337 0.35 0.59 0.16 0.247 0.36 0.59 0.6 1.03v0c0.26 0.393 0.57 0.917 0.93 1.57 0.36 0.647 0.787 1.413 1.28 2.3 0.5 0.887 1.073 1.877 1.72 2.97 0.653 1.093 1.403 2.267 2.25 3.52v0c0.273 0.24 0.59 0.39 0.95 0.45 0.36 0.053 0.693 0.083 1 0.09 0.313 0.013 0.573 0.03 0.78 0.05 0.213 0.027 0.32 0.13 0.32 0.31v0c0 0.127-0.133 0.277-0.4 0.45-0.267 0.173-0.58 0.35-0.94 0.53-0.36 0.173-0.723 0.343-1.09 0.51-0.367 0.16-0.647 0.29-0.84 0.39v0c-0.393 0.193-0.8 0.38-1.22 0.56-0.427 0.18-0.883 0.38-1.37 0.6-0.487 0.22-1.027 0.477-1.62 0.77-0.593 0.293-1.267 0.643-2.02 1.05v0c-0.193 0.113-0.377 0.19-0.55 0.23-0.167 0.04-0.323 0.06-0.47 0.06v0c-0.293 0-0.547-0.07-0.76-0.21-0.213-0.133-0.393-0.3-0.54-0.5-0.14-0.193-0.257-0.393-0.35-0.6-0.087-0.2-0.163-0.367-0.23-0.5v0zM199.24-28.86l-0.97 10.38c0.827 0 1.687-0.213 2.58-0.64 0.9-0.42 1.717-0.963 2.45-1.63 0.727-0.667 1.327-1.423 1.8-2.27 0.473-0.847 0.71-1.703 0.71-2.57v0c0-2.36-1.417-3.54-4.25-3.54v0c-0.533 0-0.98 0.037-1.34 0.11-0.36 0.073-0.687 0.127-0.98 0.16zM218.8-16.5v0c0-1.793 0.217-3.517 0.65-5.17 0.427-1.653 1.04-3.193 1.84-4.62 0.8-1.433 1.763-2.737 2.89-3.91 1.133-1.173 2.4-2.18 3.8-3.02 1.4-0.833 2.917-1.48 4.55-1.94 1.64-0.453 3.363-0.68 5.17-0.68v0c1.427 0 2.683 0.093 3.77 0.28 1.08 0.187 2.023 0.423 2.83 0.71 0.807 0.287 1.483 0.6 2.03 0.94 0.54 0.34 0.99 0.667 1.35 0.98v0c-0.013 0-0.02 0.057-0.02 0.17v0c0 0.24 0.02 0.687 0.06 1.34 0.04 0.653 0.087 1.377 0.14 2.17 0.06 0.8 0.11 1.61 0.15 2.43 0.04 0.82 0.06 1.533 0.06 2.14v0c0 0.093-0.033 0.203-0.1 0.33-0.06 0.12-0.22 0.18-0.48 0.18v0c-0.147 0-0.327-0.023-0.54-0.07v0c-0.34-0.1-0.773-0.323-1.3-0.67-0.52-0.353-1.123-0.72-1.81-1.1-0.693-0.387-1.467-0.73-2.32-1.03-0.86-0.3-1.793-0.45-2.8-0.45v0c-1.333 0-2.547 0.263-3.64 0.79-1.087 0.533-2.013 1.263-2.78 2.19-0.767 0.927-1.36 2.03-1.78 3.31-0.427 1.273-0.64 2.667-0.64 4.18v0c0 1.34 0.147 2.613 0.44 3.82 0.293 1.213 0.737 2.277 1.33 3.19 0.593 0.913 1.333 1.643 2.22 2.19 0.893 0.54 1.923 0.81 3.09 0.81v0c0.927 0 1.75-0.03 2.47-0.09 0.713-0.067 1.38-0.173 2-0.32 0.62-0.147 1.227-0.343 1.82-0.59 0.593-0.24 1.233-0.55 1.92-0.93v0c0.027-0.013 0.107-0.02 0.24-0.02v0c0.113 0 0.19 0.043 0.23 0.13 0.04 0.093 0.06 0.277 0.06 0.55v0 2.93c0 0.54-0.003 1.067-0.01 1.58-0.007 0.513-0.013 0.973-0.02 1.38-0.013 0.407-0.023 0.737-0.03 0.99-0.007 0.247-0.017 0.37-0.03 0.37v0c-0.753 0.473-1.557 0.86-2.41 1.16-0.853 0.307-1.733 0.543-2.64 0.71-0.9 0.173-1.807 0.287-2.72 0.34-0.913 0.06-1.79 0.09-2.63 0.09v0c-2.3 0-4.45-0.437-6.45-1.31-2-0.867-3.737-2.083-5.21-3.65-1.473-1.56-2.633-3.43-3.48-5.61-0.847-2.18-1.27-4.58-1.27-7.2zM263.67-34.99v0c-0.013 0.393-0.047 0.88-0.1 1.46-0.047 0.573-0.097 1.183-0.15 1.83-0.06 0.64-0.127 1.29-0.2 1.95-0.073 0.66-0.14 1.267-0.2 1.82-0.053 0.553-0.097 1.03-0.13 1.43-0.033 0.4-0.05 0.657-0.05 0.77v0c-0.067 1.007-0.137 1.943-0.21 2.81-0.073 0.86-0.15 1.713-0.23 2.56-0.08 0.847-0.163 1.72-0.25 2.62-0.093 0.907-0.187 1.903-0.28 2.99-0.1 1.093-0.21 2.307-0.33 3.64-0.127 1.333-0.253 2.863-0.38 4.59v0l10.1-1.02c0.46-0.053 0.837-0.08 1.13-0.08v0c0.353 0 0.577 0.057 0.67 0.17 0.087 0.113 0.13 0.293 0.13 0.54v0c0 0.033-0.007 0.08-0.02 0.14-0.02 0.053-0.057 0.16-0.11 0.32-0.06 0.167-0.143 0.403-0.25 0.71-0.1 0.313-0.24 0.747-0.42 1.3v0l-0.54 1.61c-0.18 0.52-0.347 0.987-0.5 1.4-0.153 0.413-0.343 0.773-0.57 1.08-0.233 0.3-0.52 0.54-0.86 0.72-0.34 0.173-0.78 0.287-1.32 0.34v0c-0.34 0.033-0.803 0.06-1.39 0.08-0.587 0.027-1.26 0.053-2.02 0.08-0.767 0.02-1.593 0.047-2.48 0.08-0.887 0.033-1.793 0.073-2.72 0.12v0c-0.913 0.033-1.833 0.057-2.76 0.07-0.933 0.007-1.813 0.017-2.64 0.03-0.833 0.02-1.6 0.037-2.3 0.05-0.693 0.02-1.27 0.037-1.73 0.05v0c-0.42 0-0.723-0.033-0.91-0.1-0.187-0.067-0.28-0.173-0.28-0.32v0c0-0.173 0.057-0.427 0.17-0.76 0.113-0.34 0.26-0.717 0.44-1.13 0.173-0.413 0.37-0.843 0.59-1.29 0.22-0.447 0.437-0.883 0.65-1.31v0l0.66-8.71c0.133-1.487 0.263-2.993 0.39-4.52 0.133-1.533 0.247-3.013 0.34-4.44v0l0.42-6.47c0.093-1.533 0.157-2.647 0.19-3.34 0.033-0.687 0.05-1.063 0.05-1.13v0c0.033-0.293 0.057-0.537 0.07-0.73 0.02-0.2 0.05-0.363 0.09-0.49 0.04-0.133 0.1-0.23 0.18-0.29 0.087-0.067 0.21-0.117 0.37-0.15v0l8.57-2.03c0.18-0.067 0.4-0.1 0.66-0.1v0c0.18 0 0.307 0.053 0.38 0.16 0.073 0.107 0.11 0.307 0.11 0.6v0c0 0.033-0.007 0.08-0.02 0.14-0.007 0.053-0.01 0.103-0.01 0.15zM305.66-34.91v0c-0.027 0.44-0.083 1.087-0.17 1.94-0.08 0.853-0.173 1.82-0.28 2.9-0.107 1.087-0.217 2.223-0.33 3.41-0.113 1.187-0.223 2.323-0.33 3.41-0.107 1.08-0.2 2.06-0.28 2.94-0.08 0.88-0.137 1.54-0.17 1.98v0c-0.34 3.467-0.92 6.44-1.74 8.92-0.827 2.48-1.907 4.51-3.24 6.09-1.333 1.58-2.933 2.74-4.8 3.48-1.86 0.74-4.01 1.11-6.45 1.11v0c-1.68 0-3.26-0.307-4.74-0.92-1.48-0.607-2.773-1.463-3.88-2.57-1.107-1.107-1.983-2.437-2.63-3.99-0.64-1.553-0.96-3.283-0.96-5.19v0c0-0.247 0.02-0.69 0.06-1.33 0.04-0.647 0.097-1.433 0.17-2.36 0.073-0.927 0.157-1.98 0.25-3.16 0.087-1.18 0.18-2.437 0.28-3.77v0l0.29-4.05c0.1-1.487 0.173-2.72 0.22-3.7 0.047-0.987 0.1-1.78 0.16-2.38 0.053-0.607 0.137-1.047 0.25-1.32 0.113-0.28 0.293-0.46 0.54-0.54v0l8.33-1.85c0.207-0.067 0.427-0.1 0.66-0.1v0c0.26 0 0.433 0.073 0.52 0.22 0.087 0.147 0.13 0.423 0.13 0.83v0l-1.85 19.24c-0.033 0.567-0.09 1.183-0.17 1.85-0.08 0.667-0.12 1.35-0.12 2.05v0c0 0.427 0.05 0.89 0.15 1.39 0.107 0.507 0.3 0.983 0.58 1.43 0.273 0.447 0.65 0.823 1.13 1.13 0.48 0.3 1.103 0.45 1.87 0.45v0c0.927 0 1.677-0.2 2.25-0.6 0.567-0.4 1.02-0.93 1.36-1.59 0.347-0.66 0.597-1.407 0.75-2.24 0.153-0.84 0.28-1.7 0.38-2.58v0c0.08-1.027 0.177-2.23 0.29-3.61 0.113-1.387 0.227-2.87 0.34-4.45v0l0.71-9.74c0.033-0.293 0.053-0.537 0.06-0.73 0.007-0.193 0.027-0.357 0.06-0.49 0.033-0.127 0.103-0.223 0.21-0.29 0.107-0.067 0.273-0.117 0.5-0.15v0l8.33-2.02c0.207-0.067 0.423-0.1 0.65-0.1v0c0.233 0 0.403 0.07 0.51 0.21 0.1 0.133 0.15 0.413 0.15 0.84zM311.77-0.32v0c-0.327-0.08-0.547-0.207-0.66-0.38-0.113-0.167-0.17-0.357-0.17-0.57v0c0-0.047 0.003-0.08 0.01-0.1 0.007-0.013 0.01-0.043 0.01-0.09v0c0.133-1.76 0.277-3.603 0.43-5.53 0.153-1.933 0.32-3.897 0.5-5.89 0.18-1.993 0.36-3.983 0.54-5.97 0.18-1.987 0.357-3.913 0.53-5.78v0h-0.02c-0.067 0-0.25 0.05-0.55 0.15-0.3 0.107-0.643 0.223-1.03 0.35-0.38 0.12-0.763 0.23-1.15 0.33-0.393 0.093-0.713 0.14-0.96 0.14v0c-0.207 0-0.357-0.08-0.45-0.24-0.087-0.167-0.13-0.347-0.13-0.54v0c0-0.147 0.023-0.283 0.07-0.41v0c0.44-1.273 0.897-2.463 1.37-3.57 0.473-1.107 0.943-2.247 1.41-3.42v0c1.24-0.667 2.527-1.247 3.86-1.74 1.333-0.5 2.68-0.917 4.04-1.25 1.36-0.333 2.717-0.583 4.07-0.75 1.347-0.173 2.657-0.26 3.93-0.26v0c1.773 0 3.443 0.187 5.01 0.56 1.573 0.373 2.943 0.94 4.11 1.7 1.16 0.753 2.077 1.703 2.75 2.85 0.68 1.153 1.02 2.503 1.02 4.05v0c0 0.667-0.147 1.307-0.44 1.92-0.293 0.62-0.673 1.21-1.14 1.77-0.46 0.567-0.977 1.09-1.55 1.57-0.567 0.48-1.127 0.913-1.68 1.3v0c0.78 0.573 1.483 1.09 2.11 1.55 0.627 0.467 1.16 0.953 1.6 1.46 0.44 0.5 0.773 1.063 1 1.69 0.227 0.627 0.34 1.39 0.34 2.29v0c0 1.367-0.24 2.67-0.72 3.91-0.48 1.247-1.14 2.403-1.98 3.47-0.833 1.067-1.823 2.03-2.97 2.89-1.153 0.867-2.4 1.603-3.74 2.21-1.34 0.613-2.757 1.087-4.25 1.42-1.487 0.333-2.987 0.5-4.5 0.5v0c-0.553 0-1.293-0.057-2.22-0.17-0.933-0.113-1.907-0.247-2.92-0.4-1.02-0.16-2.02-0.333-3-0.52-0.987-0.187-1.813-0.353-2.48-0.5zM323.02-27.1v0c-0.307 1.92-0.567 3.87-0.78 5.85-0.213 1.973-0.397 3.893-0.55 5.76-0.153 1.86-0.287 3.63-0.4 5.31-0.113 1.673-0.227 3.17-0.34 4.49v0c0.647 0 1.35-0.037 2.11-0.11 0.753-0.073 1.507-0.2 2.26-0.38 0.747-0.18 1.473-0.41 2.18-0.69 0.707-0.287 1.33-0.64 1.87-1.06 0.54-0.427 0.97-0.93 1.29-1.51 0.327-0.573 0.49-1.237 0.49-1.99v0c0-0.453-0.137-0.853-0.41-1.2-0.28-0.353-0.633-0.657-1.06-0.91-0.433-0.253-0.91-0.463-1.43-0.63-0.52-0.173-1.03-0.313-1.53-0.42-0.493-0.107-0.95-0.187-1.37-0.24-0.413-0.06-0.727-0.107-0.94-0.14v0c-0.227-0.027-0.373-0.107-0.44-0.24-0.06-0.133-0.09-0.297-0.09-0.49v0c0-0.213 0.13-0.53 0.39-0.95 0.26-0.427 0.617-1.003 1.07-1.73v0l1.03-1.64c0.44-0.16 0.917-0.363 1.43-0.61 0.507-0.247 0.98-0.527 1.42-0.84 0.44-0.32 0.807-0.68 1.1-1.08 0.293-0.393 0.44-0.827 0.44-1.3v0c0-1.333-0.287-2.357-0.86-3.07-0.58-0.707-1.417-1.06-2.51-1.06v0c-1.233 0-2.69 0.293-4.37 0.88z" data-fill-palette-color="primary" fill="#6a6a7e" opacity="1"></path></g></svg></g></svg></g></svg></g></svg></g></svg></g></svg><rect width="395.5199999999999" height="48.060038979118325" fill="none" stroke="none" visibility="hidden"></rect></g></svg></g></svg>